name D:\school\WTK\thesis\model\3dpredictsim\Results\batch_windlass\Pog_s1_tmt_aCst_d05_k800_WL20_ig24_pas.mot
datacolumns 128
datarows 4
range 0.54086776 0.57331982
endheader
time	pelvis_tilt	pelvis_list	pelvis_rotation	pelvis_tx	pelvis_ty	pelvis_tz	hip_flexion_l	hip_adduction_l	hip_rotation_l	hip_flexion_r	hip_adduction_r	hip_rotation_r	knee_angle_l	knee_angle_r	ankle_angle_l	ankle_angle_r	subtalar_angle_l	subtalar_angle_r	tmt_angle_l	tmt_angle_r	mtp_angle_l	mtp_angle_r	lumbar_extension	lumbar_bending	lumbar_rotation	arm_flex_l	arm_add_l	arm_rot_l	arm_flex_r	arm_add_r	arm_rot_r	elbow_flex_l	elbow_flex_r	pro_sup_l	pro_sup_r	glut_med1_l/activation	glut_med2_l/activation	glut_med3_l/activation	glut_min1_l/activation	glut_min2_l/activation	glut_min3_l/activation	semimem_l/activation	semiten_l/activation	bifemlh_l/activation	bifemsh_l/activation	sar_l/activation	add_long_l/activation	add_brev_l/activation	add_mag1_l/activation	add_mag2_l/activation	add_mag3_l/activation	tfl_l/activation	pect_l/activation	grac_l/activation	glut_max1_l/activation	glut_max2_l/activation	glut_max3_l/activation	iliacus_l/activation	psoas_l/activation	quad_fem_l/activation	gem_l/activation	peri_l/activation	rect_fem_l/activation	vas_med_l/activation	vas_int_l/activation	vas_lat_l/activation	med_gas_l/activation	lat_gas_l/activation	soleus_l/activation	tib_post_l/activation	flex_dig_l/activation	flex_hal_l/activation	tib_ant_l/activation	per_brev_l/activation	per_long_l/activation	per_tert_l/activation	ext_dig_l/activation	ext_hal_l/activation	ercspn_l/activation	intobl_l/activation	extobl_l/activation	glut_med1_r/activation	glut_med2_r/activation	glut_med3_r/activation	glut_min1_r/activation	glut_min2_r/activation	glut_min3_r/activation	semimem_r/activation	semiten_r/activation	bifemlh_r/activation	bifemsh_r/activation	sar_r/activation	add_long_r/activation	add_brev_r/activation	add_mag1_r/activation	add_mag2_r/activation	add_mag3_r/activation	tfl_r/activation	pect_r/activation	grac_r/activation	glut_max1_r/activation	glut_max2_r/activation	glut_max3_r/activation	iliacus_r/activation	psoas_r/activation	quad_fem_r/activation	gem_r/activation	peri_r/activation	rect_fem_r/activation	vas_med_r/activation	vas_int_r/activation	vas_lat_r/activation	med_gas_r/activation	lat_gas_r/activation	soleus_r/activation	tib_post_r/activation	flex_dig_r/activation	flex_hal_r/activation	tib_ant_r/activation	per_brev_r/activation	per_long_r/activation	per_tert_r/activation	ext_dig_r/activation	ext_hal_r/activation	ercspn_r/activation	intobl_r/activation	extobl_r/activation	
          0.54086776	         -2.90953082	          1.72490190	         -6.51591119	          0.67608470	          0.85501340	          0.00239317	         31.69204083	          2.68640289	         -2.92989805	        -18.42928824	         -1.96979413	          7.89515897	        -19.34233526	        -10.79435503	         -0.96749671	         -1.78436309	         -3.33498433	         12.19741288	         -0.15761424	         -5.43241167	          0.83945272	         28.94698154	         -0.92401434	         -0.02487736	          1.89675782	        -10.76116765	        -13.65487036	          5.91039299	          4.20623894	        -13.49189455	         15.02647011	         18.71586122	         38.08563139	         86.51662706	         86.51662706	          0.05901434	          0.05901449	          0.05000009	          0.05901462	          0.05901454	          0.05527960	          0.05000018	          0.05000014	          0.19575460	          0.05000004	          0.05000034	          0.08830827	          0.21079539	          0.11942143	          0.16014760	          0.14649608	          0.05000010	          0.06083364	          0.05000041	          0.05000028	          0.05000059	          0.16674694	          0.05554752	          0.05437910	          0.32583721	          0.10264378	          0.10087268	          0.06496424	          0.21257889	          0.20910660	          0.17781144	          0.05876406	          0.05382559	          0.05224286	          0.05000002	          0.05000016	          0.05000020	          0.57008955	          0.28072460	          0.15685751	          0.51452753	          0.62597907	          0.28430018	          0.05000002	          0.09648382	          0.09703388	          0.22733972	          0.07211734	          0.05000002	          0.26333892	          0.16147253	          0.07858051	          0.05000069	          0.05000008	          0.05000007	          0.06234096	          0.07960492	          0.15686170	          0.18520087	          0.05000745	          0.05000091	          0.05000019	          0.24576276	          0.11728097	          0.05000077	          0.05000045	          0.05000027	          0.05000022	          0.29832646	          0.50935055	          0.05000005	          0.05000020	          0.05000018	          0.18831181	          0.07701827	          0.12044588	          0.14043161	          0.25488434	          0.32932403	          0.21130143	          0.18601649	          0.17935663	          0.24876400	          0.05000002	          0.08313631	          0.15179980	          0.05000011	          0.05000006	          0.05000010	          0.05000007	          0.05000009	          0.05485992	
          0.55168511	         -2.89208768	          1.83349223	         -6.76759511	          0.69303109	          0.85377558	          0.00220127	         30.99699399	          3.10003386	         -2.60222046	        -18.07324017	         -2.28308407	          7.66223094	        -19.64160862	        -13.04907261	         -1.30327702	         -2.85835674	         -4.05227058	         13.18967781	         -0.21641386	         -5.88292520	          1.03238156	         29.56843032	         -0.68280601	         -0.28384738	          1.95892943	        -11.84422375	        -13.65400173	          5.80096929	          3.86988642	        -13.52984650	         15.31572294	         18.61333406	         39.12316680	         86.51662706	         86.51662706	          0.05000004	          0.05000011	          0.16745834	          0.05000016	          0.05000011	          0.05000009	          0.05000008	          0.05000022	          0.16585311	          0.05000011	          0.05000051	          0.07481926	          0.17859676	          0.29801643	          0.25743303	          0.17341609	          0.05000027	          0.06832564	          0.11543393	          0.14856295	          0.14549213	          0.14769600	          0.05000017	          0.05000028	          0.28650193	          0.08696501	          0.08546441	          0.05901444	          0.28708191	          0.28220776	          0.24113657	          0.05000007	          0.05000010	          0.05000000	          0.05000004	          0.05814443	          0.05000055	          0.54201566	          0.23784395	          0.13289758	          0.45671709	          0.56611456	          0.24087339	          0.05000000	          0.08174592	          0.08221195	          0.19261361	          0.06110143	          0.05283564	          0.22311396	          0.13680762	          0.06657736	          0.06176274	          0.05000017	          0.05000047	          0.05281839	          0.06744536	          0.21924927	          0.36025044	          0.15972604	          0.06971916	          0.13518102	          0.20822260	          0.09936660	          0.05000067	          0.05003485	          0.05901132	          0.05901460	          0.25275709	          0.45679712	          0.05901443	          0.05901351	          0.05000017	          0.15954718	          0.13517544	          0.13517562	          0.11898091	          0.21595074	          0.27901977	          0.17902513	          0.15760248	          0.15195996	          0.21076533	          0.12846277	          0.07043730	          0.15744088	          0.05000011	          0.15135778	          0.05000328	          0.06946204	          0.05901450	          0.05901455	
          0.56250247	         -2.87161832	          1.94696601	         -6.98588428	          0.71007903	          0.85242839	          0.00201885	         30.10371676	          3.48119993	         -2.23492244	        -17.59796420	         -2.57571599	          7.42574402	        -20.11610280	        -15.51215856	         -1.26445404	         -3.95862108	         -4.81906389	         14.08777830	         -0.50002810	         -6.15270871	          1.12348752	         29.45207803	         -0.43486799	         -0.55287107	          2.00897015	        -12.88217280	        -13.66242054	          5.79113862	          3.48758467	        -13.57344008	         15.55739306	         18.46411822	         40.12886788	         86.51662706	         86.51662706	          0.30360815	          0.35957364	          0.48344229	          0.32341209	          0.26848884	          0.36363697	          0.08156455	          0.10846687	          0.14051907	          0.05936559	          0.05000027	          0.06339065	          0.15131614	          0.25249449	          0.21811029	          0.16567975	          0.05000012	          0.05789052	          0.09780225	          0.28187490	          0.21806296	          0.15871467	          0.05000012	          0.05000009	          0.24273881	          0.07368123	          0.23909893	          0.05000002	          0.28995292	          0.30370156	          0.25574239	          0.05000007	          0.05000013	          0.05000075	          0.07636548	          0.05000017	          0.05000033	          0.63739288	          0.20151328	          0.11259747	          0.38695426	          0.59116778	          0.34739971	          0.05483232	          0.08221198	          0.06965407	          0.22755818	          0.05176820	          0.05000001	          0.23792856	          0.11591028	          0.05640770	          0.08662150	          0.05000045	          0.05000028	          0.05000015	          0.05714367	          0.20861155	          0.30522236	          0.13532795	          0.05906979	          0.11453220	          0.24580340	          0.08418899	          0.05000055	          0.05000045	          0.05000031	          0.05000039	          0.21414848	          0.42472006	          0.05000004	          0.05000015	          0.05000005	          0.13517634	          0.11452741	          0.11452755	          0.10080658	          0.18296426	          0.23639949	          0.15167903	          0.13352872	          0.12874814	          0.17857099	          0.18950681	          0.13369234	          0.14142358	          0.23268300	          0.22690676	          0.08867927	          0.10102485	          0.05000004	          0.05000009	
          0.57331982	         -2.85146032	          2.05884150	         -7.16520317	          0.72689893	          0.85114876	          0.00180744	         29.15173920	          3.86292291	         -1.87080301	        -16.96215430	         -2.84340729	          7.19333286	        -20.50206362	        -18.20792777	         -1.21916642	         -5.00438794	         -5.61924682	         14.88354228	         -0.61382258	         -6.07884142	          1.26585097	         28.11828116	         -0.21077176	         -0.82173719	          2.04859854	        -13.79501746	        -13.67110341	          5.89630921	          3.12427400	        -13.61602511	         15.77628738	         18.21671635	         41.03472760	         86.51662706	         86.51662706	          0.41649254	          0.51408907	          0.60062100	          0.27401110	          0.43905153	          0.42709316	          0.06910562	          0.09832214	          0.11905479	          0.05029768	          0.05000010	          0.05370775	          0.12820261	          0.21392612	          0.21241783	          0.18240900	          0.05000011	          0.05000039	          0.08286317	          0.36004920	          0.26723971	          0.19379296	          0.05000001	          0.05000001	          0.20566056	          0.06242658	          0.20257679	          0.05000001	          0.37629675	          0.38422390	          0.32314509	          0.05000000	          0.05000001	          0.05000000	          0.15333514	          0.05901559	          0.05000196	          0.69538447	          0.17073212	          0.09539821	          0.32784713	          0.56290103	          0.42058451	          0.07788975	          0.06965411	          0.05901442	          0.19279871	          0.05000007	          0.05000003	          0.20158511	          0.09820504	          0.05000014	          0.11873086	          0.05000012	          0.05000019	          0.05000005	          0.05000047	          0.20534090	          0.25859972	          0.11465670	          0.05004715	          0.09703752	          0.27581248	          0.07132929	          0.05000018	          0.05000113	          0.05000080	          0.05000048	          0.18143731	          0.38364231	          0.05000005	          0.05000027	          0.05000010	          0.11452816	          0.09703347	          0.09703357	          0.08540845	          0.15501646	          0.20028947	          0.12851005	          0.12938107	          0.10908210	          0.15129690	          0.16055969	          0.11327088	          0.11982115	          0.19714069	          0.21288805	          0.07513356	          0.12929541	          0.05000000	          0.05000001	
